<svg version="1.2" xmlns="http://www.w3.org/2000/svg" viewBox="0 0 480 460" width="480" height="460">
	<title>graphColoring-svg</title>
	<style>
		.s0 { fill: none } 
		.s1 { opacity: .9;fill: #a36b71 } 
		.s2 { fill: #ff7c8b } 
		.s3 { opacity: .7;fill: #ababec;stroke: #8a8ae9;stroke-width: 2 } 
		.s4 { opacity: .8;fill: #ababec;stroke: #8a8ae9;stroke-width: 2 } 
		.s5 { opacity: .9;fill: #8ac2d1 } 
		.s6 { fill: #8bdbf0;stroke: #8bdbf0 } 
		.s7 { opacity: .9;fill: #97b787 } 
		.s8 { fill: #a3d58a } 
	</style>
	<path id="backgroundrect" class="s0" d="m0 0h480v460h-480z"/>
	<g id="Layer">
		<g id="svg_1">
			<path id="svg_2" fill-rule="evenodd" class="s1" d="m259.5 40.5q-2.6 1.7-3 5-5.6 7.5-15 8-2.5 0-5 0-9.4-0.5-15-8-0.4-3.3-3-5-4.3-32.4 28-28.5 18.3 8.7 13 28.5z"/>
		</g>
		<g id="svg_3">
			<path id="svg_4" fill-rule="evenodd" class="s2" d="m232.5 15.5q20.2-3.2 24 16.5-2.9 19.8-23 17-15.6-7-10.5-23.5 3.1-6.7 9.5-10z"/>
		</g>
		<g id="svg_5" style="opacity: .7">
			<path id="svg_6" fill-rule="evenodd" class="s3" d="m218.5 40.5q2.6 1.7 3 5-85.5 61.5-170 124-3-2-5-5 86-62 172-124z"/>
		</g>
		<g id="svg_7" style="opacity: .7">
			<path id="svg_8" fill-rule="evenodd" class="s3" d="m259.5 40.5q86.6 61.8 172 125-1.5 2.5-4 4-85.5-62-171-124 0.4-3.3 3-5z"/>
		</g>
		<g id="svg_9" style="opacity: .8">
			<path id="svg_10" fill-rule="evenodd" class="s4" d="m236.5 53.5q2.5 0 5 0 0 25 0 50-2.5 0-5 0 0-25 0-50z"/>
		</g>
		<g id="svg_11">
			<path id="svg_12" fill-rule="evenodd" class="s5" d="m236.5 103.5q2.5 0 5 0 8.1-0.2 14 5.5 12.4 16.4-1 32-2.4 1.6-5 2.5-3 1-6 2-4.4 1.4-9 0-2.6-1.9-6-2-14-10.8-8.5-28 5.2-10.2 16.5-12z"/>
		</g>
		<g id="svg_13">
			<path id="svg_14" fill-rule="evenodd" class="s6" d="m233.5 107.5q20.1-3.2 24 16.5-4.5 23.5-27 15-17-17.5 3-31.5z"/>
		</g>
		<g id="svg_15" style="opacity: .7">
			<path id="svg_16" fill-rule="evenodd" class="s3" d="m228.5 143.5q3.4 0.1 6 2-9.3 26.9-18 54 22.5 2 45 0-9-27-18-54 3-1 6-2 9 28.4 19 56.5 31 0.8 62 0.5 0 3 0 6-30 0-60 0 6.1 22.2 15 43 23.9-17.2 47-35 2.7 2.5 4 6-25.4 17.3-50 36 9.8 29.4 19 59-2.9 1.3-6 2-8.2-28.8-18.5-57-18.5 13.3-36.5 27 24.1 18.2 49 35-1.3 3.6-4 6-25.1-18.8-51-37-24.6 18.1-49 36-3-1.5-4-5 23.2-16.4 46-33.5 2-1.5 0-3-17.7-12.2-34.5-25.5-10 27.8-18.5 56-3.2 0.3-6-1 9.1-29.4 19-58.5-25.8-19.1-52-37.5 1.3-3.5 4-6 24.2 19 49.5 37 7.7-21.3 14.5-43-31-1.5-62-1 0-3 0-6 32 0.3 64-0.5 10-28.1 19-56.5zm-30 110.5q19.9 15.3 40.5 29.5 20.1-14.9 40.5-29.5-7.7-23.6-16-47-24.5-0.8-49-0.5-8.1 23.7-16 47.5z"/>
		</g>
		<g id="svg_17">
			<path id="svg_18" fill-rule="evenodd" class="s5" d="m46.5 164.5q2 3 5 5 4.8 7.2 4 16-1.8 2.7-2 6-4.3 9.9-15 12-3 0-6 0-19.2-1.7-20-21 1.3-20.1 21.5-22 6.7 0.7 12.5 4z"/>
		</g>
		<g id="svg_19">
			<path id="svg_20" fill-rule="evenodd" class="s5" d="m445.5 204.5q-2.6-1.4-6-1-10.1-2.5-14-12-0.1-3.4-2-6-0.8-8.8 4-16 2.5-1.5 4-4 20.5-11.8 33.5 8 6.2 25.7-19.5 31z"/>
		</g>
		<g id="svg_21">
			<path id="svg_22" fill-rule="evenodd" class="s6" d="m27.5 165.5q20.1-3.2 24 16.5-4.5 23.5-27 15-17-17.5 3-31.5z"/>
		</g>
		<g id="svg_23">
			<path id="svg_24" fill-rule="evenodd" class="s6" d="m438.5 165.5q20.1-3.2 24 16.5-4.5 23.5-27 15-17-17.5 3-31.5z"/>
		</g>
		<g id="svg_25">
			<path id="svg_26" fill-rule="evenodd" class="s7" d="m145.5 200.5q0 3 0 6-0.8 3.6-2 7-2.7 2.5-4 6-14.8 11.4-30 0.5-7.7-7-7-17.5 0.5-3 1-6 8.2-18.4 28-13.5 12.2 4.6 14 17.5z"/>
		</g>
		<g id="svg_27">
			<path id="svg_28" fill-rule="evenodd" class="s1" d="m372.5 196.5q-0.4 3.4 1 6 0.1 21.6-21.5 24-8.7-0.7-15.5-6-1.3-3.5-4-6-1.5-3.9-2-8 0-3 0-6 8.8-24.4 33-14.5 6.4 3.7 9 10.5z"/>
		</g>
		<g id="svg_29" style="opacity: .7">
			<path id="svg_30" fill-rule="evenodd" class="s3" d="m55.5 185.5q23.9 5.9 48 11-0.5 3-1 6-24.6-5.3-49-11 0.2-3.3 2-6z"/>
		</g>
		<g id="svg_31" style="opacity: .8">
			<path id="svg_32" fill-rule="evenodd" class="s4" d="m423.5 185.5q1.9 2.6 2 6-26.1 5.1-52 11-1.4-2.6-1-6 25.4-5.7 51-11z"/>
		</g>
		<g id="svg_33">
			<path id="svg_34" fill-rule="evenodd" class="s8" d="m117.5 186.5q20.1-3.2 24 16.5-2.9 19.9-23 17-15.6-7-10.5-23.5 3.5-6.3 9.5-10z"/>
		</g>
		<g id="svg_35">
			<path id="svg_36" fill-rule="evenodd" class="s2" d="m345.5 187.5q20.2-3.2 24 16.5-2.9 19.8-23 17-15.6-7-10.5-23.5 3.1-6.7 9.5-10z"/>
		</g>
		<g id="svg_37" style="opacity: .7">
			<path id="svg_38" fill-rule="evenodd" class="s3" d="m32.5 203.5q3 0 6 0 33.1 100.8 65 202-2.1 1.6-5 2-33.9-101.7-66-204z"/>
		</g>
		<g id="svg_39" style="opacity: .7">
			<path id="svg_40" fill-rule="evenodd" class="s3" d="m439.5 203.5q3.4-0.4 6 1-33 102.5-66 205-3.6-1.3-6-4 33.3-100.8 66-202z"/>
		</g>
		<g id="svg_41">
			<path id="svg_42" fill-rule="evenodd" class="s7" d="m172.5 315.5q2.8 1.3 6 1 3.5 3 7 6 1 3.5 4 5 4.5 35-30 29-2.2-2.3-5-4-5.4-4.1-6.5-11-2.3-27 24.5-26z"/>
		</g>
		<g id="svg_43">
			<path id="svg_44" fill-rule="evenodd" class="s1" d="m323.5 353.5q-3.6 1.3-6 4-32.3 3.2-28-29 2.7-2.4 4-6 2.4-3.2 6-5 3.1-0.7 6-2 27.5-1.7 25.5 26-1.9 7.2-7.5 12z"/>
		</g>
		<g id="svg_45">
			<path id="svg_46" fill-rule="evenodd" class="s8" d="m162.5 319.5q20.1-3.2 24 16.5-2.9 19.9-23 17-15.6-7-10.5-23.5 3.5-6.3 9.5-10z"/>
		</g>
		<g id="svg_47">
			<path id="svg_48" fill-rule="evenodd" class="s2" d="m303.5 319.5q20.2-3.2 24 16.5-2.9 19.8-23 17-15.6-7-10.5-23.5 3.1-6.7 9.5-10z"/>
		</g>
		<g id="svg_49" style="opacity: .7">
			<path id="svg_50" fill-rule="evenodd" class="s3" d="m154.5 352.5q2.8 1.7 5 4-18 27-36 54-3.4-0.9-5-4 18.6-26.6 36-54z"/>
		</g>
		<g id="svg_51" style="opacity: .7">
			<path id="svg_52" fill-rule="evenodd" class="s3" d="m323.5 353.5q16.3 26.8 35 52-2.4 2.7-6 4-16.8-26.6-35-52 2.4-2.7 6-4z"/>
		</g>
		<g id="svg_53">
			<path id="svg_54" fill-rule="evenodd" class="s1" d="m118.5 406.5q1.6 3.1 5 4 7.8 6.6 7 17-1.4 2.1-1 5-4.8 14.6-20.5 16-23.8-3.2-21-27 2-9.5 10.5-14 2.9-0.4 5-2 7.5-1.3 15 1z"/>
		</g>
		<g id="svg_55">
			<path id="svg_56" fill-rule="evenodd" class="s7" d="m373.5 405.5q2.4 2.7 6 4 11.6 10.6 6.5 26-9.3 16.3-27.5 11.5-10.5-3.8-13-14.5 0.4-2.9-1-5-0.7-11.2 8-18 3.6-1.3 6-4 7.5-2 15 0z"/>
		</g>
		<g id="svg_57">
			<path id="svg_58" fill-rule="evenodd" class="s2" d="m102.5 409.5q20.2-3.2 24 16.5-2.9 19.8-23 17-15.6-7-10.5-23.5 3.1-6.7 9.5-10z"/>
		</g>
		<g id="svg_59">
			<path id="svg_60" fill-rule="evenodd" class="s8" d="m359.5 409.5q20.1-3.2 24 16.5-2.9 19.9-23 17-15.6-7-10.5-23.5 3.1-6.7 9.5-10z"/>
		</g>
		<g id="svg_61" style="opacity: .7">
			<path id="svg_62" fill-rule="evenodd" class="s3" d="m130.5 427.5q107 0 214 0 1.4 2.1 1 5-108 0-216 0-0.4-2.9 1-5z"/>
		</g>
	</g>
</svg>