<svg xmlns="http://www.w3.org/2000/svg" xmlns:xlink="http://www.w3.org/1999/xlink" version="1.1" width="512" height="512" style="shape-rendering: geometricprecision; text-rendering: geometricprecision; fill-rule: evenodd; clip-rule: evenodd;"><rect id="backgroundrect" width="100%" height="100%" x="0" y="0" fill="none" stroke="none" data-darkreader-inline-stroke="" style="--darkreader-inline-stroke: none;"/>











<g class="currentLayer" style=""><title>Layer 1</title><g id="svg_1" class="" fill="#0986b3" fill-opacity="1"><path style="opacity: 0.985; --darkreader-inline-fill: #000000;" fill="#0986b3" d="M 64.5,-0.5 C 69.8333,-0.5 75.1667,-0.5 80.5,-0.5C 88.7779,4.08125 91.6112,11.0812 89,20.5C 84.8294,28.0066 78.3294,31.5066 69.5,31C 64.0042,33.8135 60.8375,38.3135 60,44.5C 59.6667,108.167 59.3333,171.833 59,235.5C 57.1707,242.824 54.004,249.491 49.5,255.5C 54.004,261.509 57.1707,268.176 59,275.5C 59.3333,339.167 59.6667,402.833 60,466.5C 60.8375,472.687 64.0042,477.187 69.5,480C 88.0356,481.511 93.5356,490.678 86,507.5C 83.9847,508.697 82.1513,510.03 80.5,511.5C 75.1667,511.5 69.8333,511.5 64.5,511.5C 48.1147,506.953 36.948,496.62 31,480.5C 29.6807,415.544 29.014,350.544 29,285.5C 28.1625,279.313 24.9958,274.813 19.5,272C 10.5759,272.376 3.90925,268.876 -0.5,261.5C -0.5,257.5 -0.5,253.5 -0.5,249.5C 3.90925,242.124 10.5759,238.624 19.5,239C 24.9958,236.187 28.1625,231.687 29,225.5C 29.014,160.456 29.6807,95.4556 31,30.5C 36.948,14.3804 48.1147,4.04709 64.5,-0.5 Z" id="svg_2" data-darkreader-inline-fill="" fill-opacity="1"/></g><g id="svg_3" class="" fill="#0986b3" fill-opacity="1"><path style="opacity: 0.985; --darkreader-inline-fill: #000000;" fill="#0986b3" d="M 430.5,-0.5 C 435.833,-0.5 441.167,-0.5 446.5,-0.5C 462.885,4.04709 474.052,14.3804 480,30.5C 481.319,95.4556 481.986,160.456 482,225.5C 482.838,231.687 486.004,236.187 491.5,239C 500.424,238.624 507.091,242.124 511.5,249.5C 511.5,253.5 511.5,257.5 511.5,261.5C 507.091,268.876 500.424,272.376 491.5,272C 486.004,274.813 482.838,279.313 482,285.5C 481.986,350.544 481.319,415.544 480,480.5C 474.052,496.62 462.885,506.953 446.5,511.5C 441.167,511.5 435.833,511.5 430.5,511.5C 422.222,506.919 419.389,499.919 422,490.5C 426.171,482.993 432.671,479.493 441.5,480C 446.996,477.187 450.162,472.687 451,466.5C 451.333,402.833 451.667,339.167 452,275.5C 453.829,268.176 456.996,261.509 461.5,255.5C 456.996,249.491 453.829,242.824 452,235.5C 451.667,171.833 451.333,108.167 451,44.5C 450.162,38.3135 446.996,33.8135 441.5,31C 422.964,29.489 417.464,20.3223 425,3.5C 427.015,2.30342 428.849,0.970083 430.5,-0.5 Z" id="svg_4" data-darkreader-inline-fill="" fill-opacity="1"/></g><g id="svg_5" class="" fill="#00daff" fill-opacity="1"><path style="opacity: 0.964; --darkreader-inline-fill: #000000;" fill="#00daff" d="M 115.5,45.5 C 124.173,45.3336 132.84,45.5002 141.5,46C 145.667,47.5 148.5,50.3333 150,54.5C 150.667,88.5 150.667,122.5 150,156.5C 145.652,164.915 138.819,167.748 129.5,165C 125.333,163.5 122.5,160.667 121,156.5C 119.554,129.537 119.054,102.537 119.5,75.5C 108.255,73.0283 104.088,66.0283 107,54.5C 108.688,50.3148 111.521,47.3148 115.5,45.5 Z" id="svg_6" data-darkreader-inline-fill="" fill-opacity="1"/></g><g id="svg_7" class="" fill-opacity="1" fill="#00daff"><path style="opacity: 0.983; --darkreader-inline-fill: #000000;" fill="#00daff" d="M 235.5,45.5 C 244.173,45.3336 252.84,45.5002 261.5,46C 265.667,47.5 268.5,50.3333 270,54.5C 270.667,88.5 270.667,122.5 270,156.5C 265.652,164.915 258.819,167.748 249.5,165C 245.333,163.5 242.5,160.667 241,156.5C 240.5,129.502 240.333,102.502 240.5,75.5C 234.253,75.1263 229.753,72.1263 227,66.5C 224.389,57.0812 227.222,50.0812 235.5,45.5 Z" id="svg_8" data-darkreader-inline-fill=""/></g><g id="svg_9" class="" fill-opacity="1" fill="#00daff"><path style="opacity: 0.963; --darkreader-inline-fill: #000000;" fill="#00daff" d="M 365.5,45.5 C 388.793,42.3955 405.959,51.0622 417,71.5C 418.286,74.4055 419.286,77.4055 420,80.5C 422,97.1667 422,113.833 420,130.5C 415.167,148.667 403.667,160.167 385.5,165C 362.182,168.591 345.015,160.091 334,139.5C 332.714,136.595 331.714,133.595 331,130.5C 330.333,113.833 330.333,97.1667 331,80.5C 336.016,62.3183 347.516,50.6517 365.5,45.5 Z M 370.5,76.5 C 381.422,75.1971 387.922,79.8637 390,90.5C 390.887,102.216 390.554,113.883 389,125.5C 383.135,135.246 375.301,137.08 365.5,131C 364.333,129.167 363.167,127.333 362,125.5C 361.333,112.167 361.333,98.8333 362,85.5C 363.688,81.3148 366.521,78.3148 370.5,76.5 Z" id="svg_10" data-darkreader-inline-fill=""/></g><g id="svg_11" class="" fill="#00daff" fill-opacity="1" data-darkreader-inline-fill="" style="--darkreader-inline-fill: #181a1b;"><path style="opacity: 0.963; --darkreader-inline-fill: #181a1b;" fill="#00daff" d="M 125.5,195.5 C 148.793,192.396 165.959,201.062 177,221.5C 178.286,224.405 179.286,227.405 180,230.5C 180.667,247.167 180.667,263.833 180,280.5C 175.167,298.667 163.667,310.167 145.5,315C 122.182,318.591 105.015,310.091 94,289.5C 92.7138,286.595 91.7138,283.595 91,280.5C 89,263.833 89,247.167 91,230.5C 96.0157,212.318 107.516,200.652 125.5,195.5 Z M 130.5,226.5 C 139.051,224.86 145.218,227.86 149,235.5C 149.667,248.833 149.667,262.167 149,275.5C 143.135,285.246 135.301,287.08 125.5,281C 122.773,278.044 121.273,274.544 121,270.5C 120.113,258.784 120.446,247.117 122,235.5C 123.688,231.315 126.521,228.315 130.5,226.5 Z" id="svg_12" data-darkreader-inline-fill="" fill-opacity="1"/></g><g id="svg_13" class="" fill-opacity="1" fill="#00daff"><path style="opacity: 0.971; --darkreader-inline-fill: #000000;" fill="#00daff" d="M 245.5,195.5 C 268.793,192.396 285.959,201.062 297,221.5C 298.286,224.405 299.286,227.405 300,230.5C 300.667,247.167 300.667,263.833 300,280.5C 295.167,298.667 283.667,310.167 265.5,315C 242.182,318.591 225.015,310.091 214,289.5C 212.714,286.595 211.714,283.595 211,280.5C 210.333,263.833 210.333,247.167 211,230.5C 216.016,212.318 227.516,200.652 245.5,195.5 Z M 250.5,226.5 C 261.422,225.197 267.922,229.864 270,240.5C 270.887,252.216 270.554,263.883 269,275.5C 263.135,285.246 255.301,287.08 245.5,281C 242.773,278.044 241.273,274.544 241,270.5C 240.113,258.784 240.446,247.117 242,235.5C 243.688,231.315 246.521,228.315 250.5,226.5 Z" id="svg_14" data-darkreader-inline-fill=""/></g><g id="svg_15" class="" fill-opacity="1" fill="#00daff"><path style="opacity: 0.963; --darkreader-inline-fill: #000000;" fill="#00daff" d="M 365.5,195.5 C 388.793,192.396 405.959,201.062 417,221.5C 418.286,224.405 419.286,227.405 420,230.5C 422,247.167 422,263.833 420,280.5C 415.167,298.667 403.667,310.167 385.5,315C 362.182,318.591 345.015,310.091 334,289.5C 332.714,286.595 331.714,283.595 331,280.5C 330.333,263.833 330.333,247.167 331,230.5C 336.016,212.318 347.516,200.652 365.5,195.5 Z M 370.5,226.5 C 381.422,225.197 387.922,229.864 390,240.5C 390.887,252.216 390.554,263.883 389,275.5C 383.135,285.246 375.301,287.08 365.5,281C 364.333,279.167 363.167,277.333 362,275.5C 361.333,262.167 361.333,248.833 362,235.5C 363.688,231.315 366.521,228.315 370.5,226.5 Z" id="svg_16" data-darkreader-inline-fill=""/></g><g id="svg_17" class="" fill-opacity="1" fill="#00daff"><path style="opacity: 0.964; --darkreader-inline-fill: #000000;" fill="#00daff" d="M 115.5,345.5 C 124.173,345.334 132.84,345.5 141.5,346C 145.667,347.5 148.5,350.333 150,354.5C 150.667,388.5 150.667,422.5 150,456.5C 145.652,464.915 138.819,467.748 129.5,465C 125.333,463.5 122.5,460.667 121,456.5C 119.554,429.537 119.054,402.537 119.5,375.5C 108.255,373.028 104.088,366.028 107,354.5C 108.688,350.315 111.521,347.315 115.5,345.5 Z" id="svg_18" data-darkreader-inline-fill=""/></g><g id="svg_19" class="" fill-opacity="1" fill="#00daff"><path style="opacity: 0.971; --darkreader-inline-fill: #000000;" fill="#00daff" d="M 245.5,345.5 C 268.793,342.396 285.959,351.062 297,371.5C 298.286,374.405 299.286,377.405 300,380.5C 300.667,397.167 300.667,413.833 300,430.5C 295.167,448.667 283.667,460.167 265.5,465C 242.182,468.591 225.015,460.091 214,439.5C 212.714,436.595 211.714,433.595 211,430.5C 210.333,413.833 210.333,397.167 211,380.5C 216.016,362.318 227.516,350.652 245.5,345.5 Z M 250.5,376.5 C 261.422,375.197 267.922,379.864 270,390.5C 270.887,402.216 270.554,413.883 269,425.5C 263.135,435.246 255.301,437.08 245.5,431C 242.773,428.044 241.273,424.544 241,420.5C 240.113,408.784 240.446,397.117 242,385.5C 243.688,381.315 246.521,378.315 250.5,376.5 Z" id="svg_20" data-darkreader-inline-fill=""/></g><g id="svg_21" class="" fill-opacity="1" fill="#00daff"><path style="opacity: 0.96; --darkreader-inline-fill: #000000;" fill="#00daff" d="M 355.5,345.5 C 364.173,345.334 372.84,345.5 381.5,346C 385.667,347.5 388.5,350.333 390,354.5C 391.622,386.466 391.955,418.466 391,450.5C 389.044,462.761 381.877,467.595 369.5,465C 365.333,463.5 362.5,460.667 361,456.5C 360.5,429.502 360.333,402.502 360.5,375.5C 354.253,375.126 349.753,372.126 347,366.5C 344.389,357.081 347.222,350.081 355.5,345.5 Z" id="svg_22" data-darkreader-inline-fill=""/></g></g></svg>