<svg xmlns="http://www.w3.org/2000/svg" xmlns:xlink="http://www.w3.org/1999/xlink" version="1.1" width="1280" height="720" style="shape-rendering:geometricPrecision; text-rendering:geometricPrecision; image-rendering:optimizeQuality; fill-rule:evenodd; clip-rule:evenodd"><rect id="backgroundrect" width="100%" height="100%" x="0" y="0" fill="none" stroke="none"/>






















































































































<g class="currentLayer" style=""><title>Layer 1</title><g id="svg_5" class="" fill-opacity="1" fill="#a3d58a"><path style="opacity:1" fill="#a3d58a" d="M670.3313751220703,40.87873935699463 C681.6113751220703,40.34973935699463 690.7783751220703,44.34973935699463 697.8313751220703,52.87873935699463 C703.6073751220704,63.46873935699463 706.1073751220704,74.80273935699464 705.3313751220703,86.87873935699463 C705.5083751220703,98.82173935699464 703.0083751220703,110.15473935699464 697.8313751220703,120.87873935699463 C689.4403751220702,131.29773935699464 678.6073751220704,134.79773935699464 665.3313751220703,131.37873935699463 C657.2513751220704,128.29973935699462 651.4173751220703,122.79973935699462 647.8313751220703,114.87873935699463 C641.8313751220703,96.20973935699462 641.8313751220703,77.54273935699462 647.8313751220703,58.87873935699463 C652.3113751220703,48.879739356994634 659.8113751220703,42.879739356994634 670.3313751220703,40.87873935699463 z" id="svg_6"/></g><path style="opacity:1" fill="#a3d58a" d="M593.3313751220703,40.87873935699463 C613.0053751220703,39.627739356994624 624.8393751220704,48.627739356994624 628.8313751220703,67.87873935699463 C631.5703751220703,83.81573935699464 630.5703751220703,99.48273935699464 625.8313751220703,114.87873935699463 C618.8743751220703,129.33273935699464 607.3743751220703,134.83273935699464 591.3313751220703,131.37873935699463 C582.6853751220704,128.73673935699463 576.5193751220703,123.23673935699463 572.8313751220703,114.87873935699463 C566.8313751220703,96.21173935699463 566.8313751220703,77.54573935699463 572.8313751220703,58.87873935699463 C577.0873751220703,49.78073935699463 583.9203751220703,43.78073935699463 593.3313751220703,40.87873935699463 z" id="svg_20" class="" fill-opacity="1"/><path style="opacity:1" fill="#171a1b" d="M597.3313751220703,54.87873935699463 C603.4563751220703,54.85573935699463 607.9563751220703,57.522739356994634 610.8313751220703,62.87873935699463 C613.7853751220703,70.40573935699462 614.9513751220703,78.23973935699462 614.3313751220703,86.37873935699463 C614.9273751220703,94.81873935699463 613.7613751220704,102.98573935699463 610.8313751220703,110.87873935699463 C606.3223751220703,117.81373935699463 600.1553751220704,119.64673935699463 592.3313751220703,116.37873935699463 C588.1203751220703,112.10173935699464 585.6203751220703,106.93473935699464 584.8313751220703,100.87873935699463 C584.1643751220704,91.54573935699463 584.1643751220704,82.21173935699463 584.8313751220703,72.87873935699463 C585.8133751220703,64.43673935699462 589.9803751220703,58.436739356994636 597.3313751220703,54.87873935699463 z" id="svg_22" class="" fill-opacity="1"/><g id="svg_23" class="" fill-opacity="1" fill="#171a1b"><path style="opacity:1" fill="#171a1b" d="M671.3313751220703,53.064101696014404 C681.8453751220703,53.7421016960144 687.6783751220703,59.4091016960144 688.8313751220703,70.0641016960144 C689.9703751220703,82.1951016960144 689.3033751220703,94.1951016960144 686.8313751220703,106.0641016960144 C683.3533751220702,115.4551016960144 676.8533751220702,118.2891016960144 667.3313751220703,114.5641016960144 C663.1203751220703,110.28710169601442 660.6203751220703,105.12010169601442 659.8313751220703,99.0641016960144 C659.1643751220704,89.7311016960144 659.1643751220704,80.3971016960144 659.8313751220703,71.0641016960144 C660.7373751220703,63.02910169601441 664.5703751220703,57.02910169601441 671.3313751220703,53.064101696014404 z" id="svg_24"/></g><path style="opacity:1" fill="#a3d58a" d="M595.3313751220703,76.87873935699463 C605.2353751220703,76.33073935699463 609.4023751220703,80.99773935699463 607.8313751220703,90.87873935699463 C605.4873751220703,97.85973935699462 600.9873751220703,99.69373935699463 594.3313751220703,96.37873935699463 C593.1303751220703,95.47573935699464 592.2963751220702,94.30973935699464 591.8313751220703,92.87873935699463 C590.3513751220703,86.82973935699462 591.5173751220702,81.49673935699462 595.3313751220703,76.87873935699463 z" id="svg_32" class="" fill-opacity="1"/><g id="svg_33" class="" fill-opacity="1" fill="#a3d58a"><path style="opacity:1" fill="#a3d58a" d="M670.3313751220703,76.87873935699463 C679.8183751220704,76.19773935699462 683.9853751220703,80.53173935699462 682.8313751220703,89.87873935699463 C681.0823751220703,97.74873935699463 676.5823751220703,99.91473935699463 669.3313751220703,96.37873935699463 C663.8463751220703,89.60073935699464 664.1793751220703,83.10073935699464 670.3313751220703,76.87873935699463 z" id="svg_34"/></g><g id="svg_35" class="" fill-opacity="1" fill="#a3d58a"><path style="opacity:1" fill="#a3d58a" d="M519.3313751220703,40.87873935699463 C530.3563751220703,39.43873935699463 539.8563751220703,42.43873935699463 547.8313751220703,49.87873935699463 C552.5993751220703,60.71573935699463 550.7653751220703,70.21573935699462 542.3313751220703,78.37873935699463 C538.5963751220703,80.57373935699462 534.9303751220702,82.74073935699462 531.3313751220703,84.87873935699463 C551.3783751220703,89.97273935699462 557.2113751220703,101.97273935699462 548.8313751220703,120.87873935699463 C544.1763751220703,126.29173935699464 538.3433751220703,129.79173935699464 531.3313751220703,131.37873935699463 C519.5753751220703,132.34473935699464 507.9083751220703,131.84473935699464 496.3313751220703,129.87873935699463 C495.8893751220703,124.68773935699463 496.3893751220703,119.68773935699463 497.8313751220703,114.87873935699463 C507.1213751220703,117.58373935699464 516.6213751220703,118.41673935699464 526.3313751220703,117.37873935699463 C534.6923751220703,115.48773935699464 538.1923751220703,110.32073935699464 536.8313751220703,101.87873935699463 C533.0723751220703,96.58073935699463 527.9063751220704,93.74773935699463 521.3313751220703,93.37873935699463 C517.6793751220703,92.87973935699463 514.0133751220703,92.71373935699464 510.3313751220703,92.87873935699463 C510.0923751220703,88.53673935699462 509.75837512207033,84.20273935699464 509.3313751220703,79.87873935699463 C518.4213751220702,79.98873935699464 526.2543751220703,76.98873935699464 532.8313751220703,70.87873935699463 C537.3773751220704,59.070739356994636 533.2103751220703,53.903739356994635 520.3313751220703,55.37873935699463 C513.7573751220702,56.749739356994624 507.9243751220704,59.58273935699462 502.8313751220703,63.87873935699463 C499.80637512207034,60.35473935699463 496.97337512207037,56.687739356994626 494.3313751220703,52.87873935699463 C501.30037512207036,45.892739356994625 509.63337512207033,41.892739356994625 519.3313751220703,40.87873935699463 z" id="svg_36"/></g><g id="svg_127"><path style="opacity:1" fill="#180b2d" d="M 876.5,345.5 C 879.089,346.419 881.089,348.086 882.5,350.5C 879.911,349.581 877.911,347.914 876.5,345.5 Z" id="svg_128"/></g><g id="svg_185" class="" fill-opacity="1" fill="#d3cdc1"><path style="opacity:1" fill="#d3cdc1" d="M 148.5,482.5 C 161.833,482.5 175.167,482.5 188.5,482.5C 188.5,487.167 188.5,491.833 188.5,496.5C 180.167,496.5 171.833,496.5 163.5,496.5C 163.5,525.5 163.5,554.5 163.5,583.5C 171.833,583.5 180.167,583.5 188.5,583.5C 188.5,588.5 188.5,593.5 188.5,598.5C 175.167,598.5 161.833,598.5 148.5,598.5C 148.5,559.833 148.5,521.167 148.5,482.5 Z" id="svg_186"/></g><g id="svg_187"><path style="opacity:1" fill="#737372" d="M 1137.5,583.5 C 1129.68,584.492 1121.68,584.826 1113.5,584.5C 1113.5,588.833 1113.5,593.167 1113.5,597.5C 1126.5,597.5 1139.5,597.5 1152.5,597.5C 1152.5,559.5 1152.5,521.5 1152.5,483.5C 1139.5,483.5 1126.5,483.5 1113.5,483.5C 1113.5,487.833 1113.5,492.167 1113.5,496.5C 1112.51,492.03 1112.18,487.363 1112.5,482.5C 1126.17,482.5 1139.83,482.5 1153.5,482.5C 1153.5,521.167 1153.5,559.833 1153.5,598.5C 1139.83,598.5 1126.17,598.5 1112.5,598.5C 1112.5,593.5 1112.5,588.5 1112.5,583.5C 1120.83,583.5 1129.17,583.5 1137.5,583.5 Z" id="svg_188"/></g><g id="svg_189" class="" fill-opacity="1" fill="#b882c3"><path style="opacity:1" fill="#b882c3" d="M 683.5,494.5 C 703.767,494.259 715.267,504.259 718,524.5C 718.667,534.833 718.667,545.167 718,555.5C 714.55,580.299 700.716,589.799 676.5,584C 669.52,580.895 664.686,575.729 662,568.5C 656.026,549.829 656.026,531.162 662,512.5C 665.99,502.603 673.157,496.603 683.5,494.5 Z" id="svg_190"/></g><g id="svg_191" class="" fill-opacity="1" fill="#d3cdc1"><path style="opacity:1" fill="#d3cdc1" d="M 1060.5,494.5 C 1077.03,494.202 1087.36,502.035 1091.5,518C 1096.31,537.349 1094.81,556.182 1087,574.5C 1078.42,584.581 1067.59,588.081 1054.5,585C 1045.76,582.596 1039.93,577.096 1037,568.5C 1031.45,550.608 1031.12,532.608 1036,514.5C 1040.13,502.709 1048.3,496.042 1060.5,494.5 Z" id="svg_192"/></g><g id="svg_193" class="" fill-opacity="1" fill="#d3cdc1"><path style="opacity:1" fill="#d3cdc1" d="M 1137.5,583.5 C 1137.5,554.5 1137.5,525.5 1137.5,496.5C 1129.5,496.5 1121.5,496.5 1113.5,496.5C 1113.5,492.167 1113.5,487.833 1113.5,483.5C 1126.5,483.5 1139.5,483.5 1152.5,483.5C 1152.5,521.5 1152.5,559.5 1152.5,597.5C 1139.5,597.5 1126.5,597.5 1113.5,597.5C 1113.5,593.167 1113.5,588.833 1113.5,584.5C 1121.68,584.826 1129.68,584.492 1137.5,583.5 Z" id="svg_194"/></g><g id="svg_195" class="" fill-opacity="1" fill="#b882c3"><path style="opacity:1" fill="#b882c3" d="M 232.5,496.5 C 237.5,496.5 242.5,496.5 247.5,496.5C 247.5,521.5 247.5,546.5 247.5,571.5C 254.167,571.5 260.833,571.5 267.5,571.5C 267.5,575.833 267.5,580.167 267.5,584.5C 248.5,584.5 229.5,584.5 210.5,584.5C 210.5,580.167 210.5,575.833 210.5,571.5C 217.833,571.5 225.167,571.5 232.5,571.5C 232.5,551.5 232.5,531.5 232.5,511.5C 225.5,513.5 218.5,515.5 211.5,517.5C 211.173,512.786 211.507,508.12 212.5,503.5C 219.051,500.761 225.718,498.428 232.5,496.5 Z" id="svg_196"/></g><g id="svg_197" class="" fill-opacity="1" fill="#b882c3"><path style="opacity:1" fill="#b882c3" d="M 383.5,494.5 C 403.803,494.299 415.303,504.299 418,524.5C 420.309,539.39 419.309,554.056 415,568.5C 407.637,583.193 395.804,588.693 379.5,585C 370.763,582.596 364.929,577.096 362,568.5C 356,549.833 356,531.167 362,512.5C 365.99,502.603 373.157,496.603 383.5,494.5 Z" id="svg_198"/></g><g id="svg_199"><path style="opacity:1" fill="#2e2c2d" d="M 232.5,496.5 C 237.64,495.512 242.974,495.179 248.5,495.5C 248.5,520.5 248.5,545.5 248.5,570.5C 255.022,570.177 261.355,570.51 267.5,571.5C 260.833,571.5 254.167,571.5 247.5,571.5C 247.5,546.5 247.5,521.5 247.5,496.5C 242.5,496.5 237.5,496.5 232.5,496.5 Z" id="svg_200"/></g><g id="svg_201" class="" fill-opacity="1" fill="#b882c3"><path style="opacity:1" fill="#b882c3" d="M 308.5,494.5 C 328.803,494.299 340.303,504.299 343,524.5C 343.667,534.5 343.667,544.5 343,554.5C 340.733,578.107 327.899,588.274 304.5,585C 295.763,582.596 289.929,577.096 287,568.5C 281,549.833 281,531.167 287,512.5C 290.99,502.603 298.157,496.603 308.5,494.5 Z" id="svg_202"/></g><g id="svg_203" class="" fill-opacity="1" fill="#171a1b"><path style="opacity:1" fill="#171a1b" d="M 308.5,509.5 C 317.139,507.98 322.972,511.314 326,519.5C 328.965,531.74 329.298,544.073 327,556.5C 323.948,572.369 315.948,575.702 303,566.5C 301.073,563.052 299.739,559.385 299,555.5C 298.333,545.5 298.333,535.5 299,525.5C 299.899,518.685 303.065,513.352 308.5,509.5 Z" id="svg_204"/></g><g id="svg_205" class="" fill-opacity="1" fill="#171a1b"><path style="opacity:1" fill="#171a1b" d="M 383.5,509.5 C 392.372,507.72 398.206,511.053 401,519.5C 403.896,531.755 404.229,544.088 402,556.5C 400.612,569.583 393.779,574.083 381.5,570C 377.001,565.834 374.501,560.667 374,554.5C 373.333,544.833 373.333,535.167 374,525.5C 374.899,518.685 378.065,513.352 383.5,509.5 Z" id="svg_206"/></g><g id="svg_207" class="" fill-opacity="1" fill="#171a1b"><path style="opacity:1" fill="#171a1b" d="M 683.5,509.5 C 692.426,507.544 698.26,510.877 701,519.5C 703.896,531.755 704.229,544.088 702,556.5C 700.363,569.222 693.529,573.722 681.5,570C 677.291,566.083 674.791,561.25 674,555.5C 673.333,545.5 673.333,535.5 674,525.5C 674.899,518.685 678.065,513.352 683.5,509.5 Z" id="svg_208"/></g><g id="svg_209" class="" fill-opacity="1" fill="#171a1b"><path style="opacity:1" fill="#171a1b" d="M 1058.5,509.5 C 1061.85,509.335 1065.18,509.502 1068.5,510C 1070.29,510.785 1071.79,511.951 1073,513.5C 1075.59,518.535 1077.26,523.868 1078,529.5C 1079.71,542.659 1078.05,555.325 1073,567.5C 1068.11,571.776 1062.61,572.61 1056.5,570C 1052.29,566.083 1049.79,561.25 1049,555.5C 1048.33,545.5 1048.33,535.5 1049,525.5C 1049.9,518.685 1053.07,513.352 1058.5,509.5 Z" id="svg_210"/></g><g id="svg_211" class="" fill-opacity="1" fill="#b882c3"><path style="opacity:1" fill="#b882c3" d="M 758.5,494.5 C 778.803,494.299 790.303,504.299 793,524.5C 794.412,539.37 793.412,554.037 790,568.5C 781.53,584.217 768.697,589.384 751.5,584C 744.52,580.895 739.686,575.729 737,568.5C 731.025,549.817 731.025,531.151 737,512.5C 740.99,502.603 748.157,496.603 758.5,494.5 Z" id="svg_212"/></g><g id="svg_213" class="" fill-opacity="1" fill="#171a1b"><path style="opacity:1" fill="#171a1b" d="M 758.5,509.5 C 767.426,507.544 773.26,510.877 776,519.5C 779.632,534.279 779.299,548.946 775,563.5C 771.744,570.597 766.244,573.097 758.5,571C 752.937,567.386 749.77,562.219 749,555.5C 748.333,545.5 748.333,535.5 749,525.5C 749.899,518.685 753.065,513.352 758.5,509.5 Z" id="svg_214"/></g><g id="svg_215" class="" fill-opacity="1" fill="#b882c3"><path style="opacity:1" fill="#b882c3" d="M 309.5,530.5 C 314.589,529.428 318.422,531.095 321,535.5C 321.667,539.167 321.667,542.833 321,546.5C 318.459,551.069 314.625,552.569 309.5,551C 302.87,544.168 302.87,537.335 309.5,530.5 Z" id="svg_216"/></g><g id="svg_217" class="" fill-opacity="1" fill="#b882c3"><path style="opacity:1" fill="#b882c3" d="M 386.5,530.5 C 390.713,530.22 393.88,531.887 396,535.5C 396.667,539.167 396.667,542.833 396,546.5C 393.459,551.069 389.625,552.569 384.5,551C 379.847,547.212 378.347,542.378 380,536.5C 381.436,533.558 383.603,531.558 386.5,530.5 Z" id="svg_218"/></g><g id="svg_219" class="" fill-opacity="1" fill="#b882c3"><path style="opacity:1" fill="#b882c3" d="M 686.5,530.5 C 690.713,530.22 693.88,531.887 696,535.5C 696.667,539.167 696.667,542.833 696,546.5C 693.459,551.069 689.625,552.569 684.5,551C 679.847,547.212 678.347,542.378 680,536.5C 681.436,533.558 683.603,531.558 686.5,530.5 Z" id="svg_220"/></g><g id="svg_221" class="" fill-opacity="1" fill="#b882c3"><path style="opacity:1" fill="#b882c3" d="M 759.5,530.5 C 764.589,529.428 768.422,531.095 771,535.5C 771.667,539.167 771.667,542.833 771,546.5C 768.459,551.069 764.625,552.569 759.5,551C 752.87,544.168 752.87,537.335 759.5,530.5 Z" id="svg_222"/></g><g id="svg_223" class="" fill-opacity="1" fill="#d3cdc1"><path style="opacity:1" fill="#d3cdc1" d="M 1061.5,530.5 C 1065.71,530.22 1068.88,531.887 1071,535.5C 1071.67,539.167 1071.67,542.833 1071,546.5C 1068.46,551.069 1064.63,552.569 1059.5,551C 1054.85,547.212 1053.35,542.378 1055,536.5C 1056.44,533.558 1058.6,531.558 1061.5,530.5 Z" id="svg_224"/></g><g id="svg_225" class="" fill-opacity="1" fill="#d3cdc1"><path style="opacity:1" fill="#d3cdc1" d="M 984.5,494.5 C 993.121,493.724 1001.12,495.557 1008.5,500C 1015.11,507.624 1016.27,516.124 1012,525.5C 1007.96,531.381 1002.46,535.047 995.5,536.5C 995.5,537.5 995.5,538.5 995.5,539.5C 1015.63,543.836 1021.46,555.502 1013,574.5C 1009.24,579.295 1004.41,582.462 998.5,584C 985.458,587.254 972.458,587.087 959.5,583.5C 959.751,578.493 960.084,573.493 960.5,568.5C 970.606,571.386 980.94,572.219 991.5,571C 999.21,568.081 1002.04,562.581 1000,554.5C 992.953,547.541 984.453,544.875 974.5,546.5C 974.073,542.176 973.739,537.842 973.5,533.5C 981.115,533.239 988.115,531.072 994.5,527C 999.332,521.871 999.665,516.538 995.5,511C 984.937,507.524 975.437,509.691 967,517.5C 963.975,513.976 961.142,510.309 958.5,506.5C 961.091,503.534 964.091,501.034 967.5,499C 973.175,497 978.842,495.5 984.5,494.5 Z" id="svg_226"/></g><g id="svg_227" class="" fill-opacity="1" fill="#b882c3"><path style="opacity:1" fill="#b882c3" d="M 605.5,494.5 C 631.714,492.546 642.88,504.546 639,530.5C 633.783,546.93 623.783,559.597 609,568.5C 608.517,569.448 608.351,570.448 608.5,571.5C 620.167,571.5 631.833,571.5 643.5,571.5C 643.5,575.833 643.5,580.167 643.5,584.5C 623.833,584.5 604.167,584.5 584.5,584.5C 584.172,579.125 584.505,573.792 585.5,568.5C 598.959,561.871 610.126,552.538 619,540.5C 623.169,533.34 624.835,525.673 624,517.5C 620.78,510.306 615.28,507.473 607.5,509C 600.894,510.97 595.227,514.47 590.5,519.5C 587.877,516.375 585.044,513.375 582,510.5C 581.667,508.953 582.167,507.62 583.5,506.5C 589.753,500.376 597.087,496.376 605.5,494.5 Z" id="svg_228"/></g><g id="svg_229"><path style="opacity:1" fill="#575556" d="M 455.5,569.5 C 460.975,568.511 466.642,568.178 472.5,568.5C 472.737,569.791 472.404,570.791 471.5,571.5C 466.604,569.554 461.271,568.887 455.5,569.5 Z" id="svg_230"/></g><g id="svg_231"><path style="opacity:1" fill="#575556" d="M 830.5,569.5 C 835.975,568.511 841.642,568.178 847.5,568.5C 847.737,569.791 847.404,570.791 846.5,571.5C 841.604,569.554 836.271,568.887 830.5,569.5 Z" id="svg_232"/></g><g id="svg_233" class="" fill-opacity="1" fill="#d3cdc1"><path style="opacity:1" fill="#d3cdc1" d="M 830.5,569.5 C 836.271,568.887 841.604,569.554 846.5,571.5C 844.497,584.855 842.33,598.188 840,611.5C 835.263,612.469 830.43,612.803 825.5,612.5C 826.534,597.954 828.201,583.621 830.5,569.5 Z" id="svg_234"/></g><g id="svg_235" class="" fill-opacity="1" fill="#d3cdc1"><path style="opacity:1" fill="#d3cdc1" d="M 455.5,569.5 C 461.271,568.887 466.604,569.554 471.5,571.5C 469.53,584.852 467.363,598.186 465,611.5C 460.263,612.469 455.43,612.803 450.5,612.5C 451.909,597.997 453.575,583.664 455.5,569.5 Z" id="svg_236"/></g><path fill="#ea8fea" fill-opacity="1" stroke="#ababec" stroke-opacity="1" stroke-width="10" stroke-dasharray="none" stroke-linejoin="miter" stroke-linecap="butt" stroke-dashoffset="" fill-rule="nonzero" opacity="0.73" marker-start="" marker-mid="" marker-end="" d="M683.45708,470.13759L986.03465,338.56801" class="" transform="rotate(96.69647979736328 777.5036010742188,271.73257446289057) " filter="url(#f205)" id="svg_71"/><path fill="#ea8fea" fill-opacity="1" stroke="#ababec" stroke-opacity="1" stroke-width="10" stroke-dasharray="none" stroke-linejoin="miter" stroke-linecap="butt" stroke-dashoffset="" fill-rule="nonzero" opacity="0.73" marker-start="" marker-mid="" marker-end="" d="M303.91319,174.49566 C381.79097,216.16604 559.8235,322.40945 637.70128,364.07983 " class="" transform="rotate(96.69647979736328 458.12744140625,292.7016906738281) " filter="url(#f205)" id="svg_3"/></g><defs><filter xmlns:inkscape="http://www.inkscape.org/namespaces/inkscape" id="f205" inkscape:label="Clean edges" inkscape:menu="ABCs" inkscape:menu-tooltip="Removes or decreases glows and jaggeries around objects edges after applying some filters" height="1" width="1" y="0" x="0" color-interpolation-filters="sRGB">
            <feGaussianBlur result="result6" stdDeviation=".4"/>
            <feComposite in2="result6" operator="in" in="SourceGraphic" result="result7"/>
            <feComposite operator="in" in2="result7" result="result8" in="result7"/>
        </filter></defs></svg>