<svg version="1.2" xmlns="http://www.w3.org/2000/svg" viewBox="0 0 1280 720" width="1280" height="720">
	<title>subsetSum-svg</title>
	<style>
		.s0 { fill: none } 
		.s1 { fill: #a3d58a } 
		.s2 { fill: #180b2d } 
		.s3 { fill: #d3cdc1 } 
		.s4 { fill: #737372 } 
		.s5 { fill: #b882c3 } 
		.s6 { fill: #2e2c2d } 
		.s7 { fill: #575556 } 
		.s8 { opacity: .7;fill: #ea8fea;stroke: #ababec;stroke-width: 10 } 
	</style>
	<path id="backgroundrect" class="s0" d="m0 0h1280v720h-1280z"/>
	<g id="Layer">
		<g id="svg_5">
		</g>
		<path id="svg_20" fill-rule="evenodd" class="s1" d="m593.3 40.9q29.5-1.9 35.5 27 4.1 23.9-3 47-10.4 21.7-34.5 16.5-12.9-4-18.5-16.5-9-28 0-56 6.4-13.7 20.5-18zm-8.5 32q-1 14 0 28 1.2 9.1 7.5 15.5 11.8 4.9 18.5-5.5 4.4-11.9 3.5-24.5 1-12.2-3.5-23.5-4.3-8.1-13.5-8-11 5.3-12.5 18z"/>
		<g id="svg_23">
			<path id="svg_6" fill-rule="evenodd" class="s1" d="m670.3 40.9q17-0.8 27.5 12 8.7 15.9 7.5 34 0.3 17.9-7.5 34-12.6 15.6-32.5 10.5-12.1-4.6-17.5-16.5-9-28 0-56 6.8-15 22.5-18zm-10.5 30.2q-1 14 0 28 1.2 9 7.5 15.5 14.3 5.6 19.5-8.5 3.7-17.8 2-36-1.7-16-17.5-17-10.1 5.9-11.5 18z"/>
		</g>
		<path id="svg_32" fill-rule="evenodd" class="s1" d="m595.3 76.9q14.9-0.8 12.5 14-3.5 10.5-13.5 5.5-1.8-1.4-2.5-3.5-2.2-9.1 3.5-16z"/>
		<g id="svg_33">
			<path id="svg_34" fill-rule="evenodd" class="s1" d="m670.3 76.9q14.3-1 12.5 13-2.6 11.8-13.5 6.5-8.2-10.2 1-19.5z"/>
		</g>
		<g id="svg_35">
			<path id="svg_36" fill-rule="evenodd" class="s1" d="m519.3 40.9q16.6-2.2 28.5 9 7.2 16.2-5.5 28.5-5.6 3.3-11 6.5 30.1 7.6 17.5 36-7 8.1-17.5 10.5-17.6 1.4-35-1.5-0.6-7.8 1.5-15 14 4 28.5 2.5 12.6-2.9 10.5-15.5-5.6-8-15.5-8.5-5.4-0.8-11-0.5-0.3-6.5-1-13 13.7 0.1 23.5-9 6.9-17.7-12.5-15.5-9.8 2-17.5 8.5-4.5-5.3-8.5-11 10.5-10.5 25-12z"/>
		</g>
		<g id="svg_127">
			<path id="svg_128" fill-rule="evenodd" class="s2" d="m876.5 345.5q3.9 1.4 6 5-3.9-1.4-6-5z"/>
		</g>
		<g id="svg_185">
			<path id="svg_186" fill-rule="evenodd" class="s3" d="m148.5 482.5q20 0 40 0 0 7 0 14-12.5 0-25 0 0 43.5 0 87 12.5 0 25 0 0 7.5 0 15-20 0-40 0 0-58 0-116z"/>
		</g>
		<g id="svg_187">
			<path id="svg_188" fill-rule="evenodd" class="s4" d="m1137.5 583.5q-11.7 1.5-24 1 0 6.5 0 13 19.5 0 39 0 0-57 0-114-19.5 0-39 0 0 6.5 0 13-1.5-6.7-1-14 20.5 0 41 0 0 58 0 116-20.5 0-41 0 0-7.5 0-15 12.5 0 25 0z"/>
		</g>
		<g id="svg_189">
		</g>
		<g id="svg_191">
		</g>
		<g id="svg_193">
			<path id="svg_194" fill-rule="evenodd" class="s3" d="m1137.5 583.5q0-43.5 0-87-12 0-24 0 0-6.5 0-13 19.5 0 39 0 0 57 0 114-19.5 0-39 0 0-6.5 0-13 12.3 0.5 24-1z"/>
		</g>
		<g id="svg_195">
			<path id="svg_196" fill-rule="evenodd" class="s5" d="m232.5 496.5q7.5 0 15 0 0 37.5 0 75 10 0 20 0 0 6.5 0 13-28.5 0-57 0 0-6.5 0-13 11 0 22 0 0-30 0-60-10.5 3-21 6-0.5-7.1 1-14 9.8-4.1 20-7z"/>
		</g>
		<g id="svg_197">
		</g>
		<g id="svg_199">
			<path id="svg_200" fill-rule="evenodd" class="s6" d="m232.5 496.5q7.7-1.5 16-1 0 37.5 0 75 9.8-0.5 19 1-10 0-20 0 0-37.5 0-75-7.5 0-15 0z"/>
		</g>
		<g id="svg_201">
		</g>
		<g id="svg_203">
			<path id="svg_202" fill-rule="evenodd" class="s5" d="m308.5 494.5q30.5-0.3 34.5 30 1 15 0 30-3.4 35.4-38.5 30.5-13.1-3.6-17.5-16.5-9-28 0-56 6-14.8 21.5-18zm-9.5 31q-1 15 0 30 1.1 5.8 4 11 19.4 13.8 24-10 3.4-18.6-1-37-4.5-12.3-17.5-10-8.2 5.8-9.5 16z"/>
		</g>
		<g id="svg_205">
			<path id="svg_198" fill-rule="evenodd" class="s5" d="m383.5 494.5q30.5-0.3 34.5 30 3.5 22.3-3 44-11 22-35.5 16.5-13.1-3.6-17.5-16.5-9-28 0-56 6-14.8 21.5-18zm-9.5 31q-1 14.5 0 29 0.8 9.3 7.5 15.5 18.4 6.1 20.5-13.5 3.3-18.6-1-37-4.2-12.7-17.5-10-8.2 5.8-9.5 16z"/>
		</g>
		<g id="svg_207">
			<path id="svg_190" fill-rule="evenodd" class="s5" d="m683.5 494.5q30.4-0.4 34.5 30 1 15.5 0 31-5.2 37.2-41.5 28.5-10.5-4.7-14.5-15.5-9-28 0-56 6-14.8 21.5-18zm-9.5 31q-1 15 0 30 1.2 8.6 7.5 14.5 18 5.6 20.5-13.5 3.3-18.6-1-37-4.1-12.9-17.5-10-8.2 5.8-9.5 16z"/>
		</g>
		<g id="svg_209">
			<path id="svg_192" fill-rule="evenodd" class="s3" d="m1060.5 494.5q24.8-0.4 31 23.5 7.2 29-4.5 56.5-12.9 15.1-32.5 10.5-13.1-3.6-17.5-16.5-8.3-26.8-1-54 6.2-17.7 24.5-20zm-11.5 31q-1 15 0 30 1.2 8.6 7.5 14.5 9.2 3.9 16.5-2.5 7.6-18.3 5-38-1.1-8.4-5-16-1.8-2.3-4.5-3.5-5-0.7-10-0.5-8.1 5.8-9.5 16z"/>
		</g>
		<g id="svg_211">
		</g>
		<g id="svg_213">
			<path id="svg_212" fill-rule="evenodd" class="s5" d="m758.5 494.5q30.5-0.3 34.5 30 2.1 22.3-3 44-12.7 23.6-38.5 15.5-10.5-4.7-14.5-15.5-9-28 0-56 6-14.8 21.5-18zm-9.5 31q-1 15 0 30 1.2 10.1 9.5 15.5 11.6 3.1 16.5-7.5 6.4-21.8 1-44-4.1-12.9-17.5-10-8.2 5.8-9.5 16z"/>
		</g>
		<g id="svg_215">
			<path id="svg_216" fill-rule="evenodd" class="s5" d="m309.5 530.5q7.6-1.6 11.5 5 1 5.5 0 11-3.8 6.9-11.5 4.5-9.9-10.2 0-20.5z"/>
		</g>
		<g id="svg_217">
			<path id="svg_218" fill-rule="evenodd" class="s5" d="m386.5 530.5q6.3-0.4 9.5 5 1 5.5 0 11-3.8 6.9-11.5 4.5-7-5.7-4.5-14.5 2.2-4.4 6.5-6z"/>
		</g>
		<g id="svg_219">
			<path id="svg_220" fill-rule="evenodd" class="s5" d="m686.5 530.5q6.3-0.4 9.5 5 1 5.5 0 11-3.8 6.9-11.5 4.5-7-5.7-4.5-14.5 2.2-4.4 6.5-6z"/>
		</g>
		<g id="svg_221">
			<path id="svg_222" fill-rule="evenodd" class="s5" d="m759.5 530.5q7.6-1.6 11.5 5 1 5.5 0 11-3.8 6.9-11.5 4.5-9.9-10.2 0-20.5z"/>
		</g>
		<g id="svg_223">
			<path id="svg_224" fill-rule="evenodd" class="s3" d="m1061.5 530.5q6.3-0.4 9.5 5 1 5.5 0 11-3.8 6.9-11.5 4.5-7-5.7-4.5-14.5 2.2-4.4 6.5-6z"/>
		</g>
		<g id="svg_225">
			<path id="svg_226" fill-rule="evenodd" class="s3" d="m984.5 494.5q12.9-1.2 24 5.5 9.9 11.4 3.5 25.5-6.1 8.8-16.5 11 0 1.5 0 3 30.2 6.5 17.5 35-5.6 7.2-14.5 9.5-19.6 4.9-39-0.5 0.4-7.5 1-15 15.2 4.3 31 2.5 11.6-4.4 8.5-16.5-10.6-10.4-25.5-8-0.6-6.5-1-13 11.4-0.4 21-6.5 7.2-7.7 1-16-15.8-5.2-28.5 6.5-4.5-5.3-8.5-11 3.9-4.4 9-7.5 8.5-3 17-4.5z"/>
		</g>
		<g id="svg_227">
			<path id="svg_228" fill-rule="evenodd" class="s5" d="m605.5 494.5q39.3-2.9 33.5 36-7.8 24.6-30 38-0.7 1.4-0.5 3 17.5 0 35 0 0 6.5 0 13-29.5 0-59 0-0.5-8.1 1-16 20.2-9.9 33.5-28 6.3-10.7 5-23-4.8-10.8-16.5-8.5-9.9 3-17 10.5-3.9-4.7-8.5-9-0.5-2.3 1.5-4 9.4-9.2 22-12z"/>
		</g>
		<g id="svg_229">
			<path id="svg_230" fill-rule="evenodd" class="s7" d="m455.5 569.5q8.2-1.5 17-1 0.4 1.9-1 3-7.3-2.9-16-2z"/>
		</g>
		<g id="svg_231">
			<path id="svg_232" fill-rule="evenodd" class="s7" d="m830.5 569.5q8.2-1.5 17-1 0.4 1.9-1 3-7.3-2.9-16-2z"/>
		</g>
		<g id="svg_233">
			<path id="svg_234" fill-rule="evenodd" class="s3" d="m830.5 569.5q8.7-0.9 16 2-3 20-6.5 40-7.1 1.5-14.5 1 1.6-21.8 5-43z"/>
		</g>
		<g id="svg_235">
			<path id="svg_236" fill-rule="evenodd" class="s3" d="m455.5 569.5q8.7-0.9 16 2-3 20-6.5 40-7.1 1.5-14.5 1 2.1-21.8 5-43z"/>
		</g>
		<path id="svg_71" class="s8" d="m591.4 155.2l95.4 315.8"/>
		<path id="svg_3" class="s8" d="m593.5 153.3c-50.5 72.5-176.7 236.9-227.2 309.4"/>
	</g>
</svg>